#N canvas 522 80 1280 654 12;
#X declare -lib Gem;
#X text 36 58 GEM object;
#X obj 25 106 cnv 15 100 60 empty empty empty 20 12 0 14 #bcbcbc #404040 0;
#N canvas 484 243 450 300 META 0;
#X obj 10 25 declare -lib Gem;
#X text 10 45 DESCRIPTION open a camera and get input;
#X text 10 65 KEYWORDS Gem pix image;
#X text 20 85 INLET_0 gemlist device backend colorspace dimen enumerate dialog enumProps get set clearProps setProps applyProps;
#X text 20 105 OUTLET_0 gemlist;
#X text 20 125 OUTLET_1 info;
#X text 10 145 AUTHOR IOhannes m zmölnig;
#X text 10 165 LICENSE GPL v2;
#X restore 45 32 pd META;
#X obj 32 112 _gemwin;
#X obj 1829 74 gemhead;
#X obj 1837 251 pix_video;
#X obj 1855 144 loadbang;
#N canvas 1035 819 815 568 xshift 0;
#X obj 119 26 inlet;
#X obj 113 366 outlet;
#X obj 113 275 translate;
#X floatatom 185 145 5 0 0 0 - - - 0;
#X msg 289 274 \$1 \$2 \$3;
#X obj 305 237 pack i i i;
#X floatatom 257 172 5 0 0 0 - - - 0;
#X floatatom 318 174 5 0 0 0 - - - 0;
#X floatatom 381 172 5 0 0 0 - - - 0;
#X obj 490 52 bng 20 250 50 0 empty empty empty 0 -10 0 12 #fcfcfc #000000 #000000;
#X obj 490 77 t b b b;
#X obj 412 -7 t b b b;
#X obj 421 -103 loadbang;
#X msg 287 67 1;
#X msg 349 70 0;
#X msg 411 67 0;
#X msg 201 69 -1.5;
#X connect 0 0 2 0;
#X connect 2 0 1 0;
#X connect 3 0 2 1;
#X connect 4 0 2 2;
#X connect 5 0 4 0;
#X connect 6 0 5 0;
#X connect 7 0 5 1;
#X connect 8 0 5 2;
#X connect 9 0 10 0;
#X connect 10 0 7 0;
#X connect 10 1 8 0;
#X connect 10 2 6 0;
#X connect 11 0 16 0;
#X connect 11 1 9 0;
#X connect 11 2 15 0;
#X connect 11 2 14 0;
#X connect 11 2 13 0;
#X connect 12 0 11 0;
#X connect 13 0 6 0;
#X connect 14 0 7 0;
#X connect 15 0 8 0;
#X connect 16 0 3 0;
#X coords 0 -1 1 1 333 111 1 100 100;
#X restore 1814 326 pd xshift;
#N canvas 492 272 1065 941 yshift 0;
#X obj 119 26 inlet;
#X obj 113 366 outlet;
#X obj 113 275 translate;
#X floatatom 185 145 5 0 0 0 - - - 0;
#X msg 289 274 \$1 \$2 \$3;
#X obj 305 237 pack i i i;
#X floatatom 257 172 5 0 0 0 - - - 0;
#X floatatom 318 174 5 0 0 0 - - - 0;
#X floatatom 381 172 5 0 0 0 - - - 0;
#X obj 490 52 bng 20 250 50 0 empty empty empty 0 -10 0 12 #fcfcfc #000000 #000000;
#X obj 490 77 t b b b;
#X msg 287 67 0;
#X msg 349 70 1;
#X msg 411 67 0;
#X obj 412 -7 t b b b;
#X obj 421 -103 loadbang;
#X msg 201 69 -2;
#X connect 0 0 2 0;
#X connect 2 0 1 0;
#X connect 3 0 2 1;
#X connect 4 0 2 2;
#X connect 5 0 4 0;
#X connect 6 0 5 0;
#X connect 7 0 5 1;
#X connect 8 0 5 2;
#X connect 9 0 10 0;
#X connect 10 0 7 0;
#X connect 10 1 8 0;
#X connect 10 2 6 0;
#X connect 11 0 6 0;
#X connect 12 0 7 0;
#X connect 13 0 8 0;
#X connect 14 0 16 0;
#X connect 14 1 9 0;
#X connect 14 2 13 0;
#X connect 14 2 12 0;
#X connect 14 2 11 0;
#X connect 15 0 14 0;
#X connect 16 0 3 0;
#X coords 0 -1 1 1 333 111 1 100 100;
#X restore 1814 465 pd yshift;
#X msg 1855 199 device /dev/video11;
#X obj 568 71 gemhead;
#X obj 576 248 pix_video;
#X obj 594 141 loadbang;
#N canvas 1035 446 815 568 xshift 0;
#X obj 119 26 inlet;
#X obj 113 366 outlet;
#X obj 113 275 translate;
#X floatatom 185 145 5 0 0 0 - - - 0;
#X msg 289 274 \$1 \$2 \$3;
#X obj 305 237 pack i i i;
#X floatatom 257 172 5 0 0 0 - - - 0;
#X floatatom 318 174 5 0 0 0 - - - 0;
#X floatatom 381 172 5 0 0 0 - - - 0;
#X obj 490 52 bng 20 250 50 0 empty empty empty 0 -10 0 12 #fcfcfc #000000 #000000;
#X obj 490 77 t b b b;
#X obj 412 -7 t b b b;
#X obj 421 -103 loadbang;
#X msg 287 67 1;
#X msg 349 70 0;
#X msg 411 67 0;
#X msg 201 69 -3;
#X connect 0 0 2 0;
#X connect 2 0 1 0;
#X connect 3 0 2 1;
#X connect 4 0 2 2;
#X connect 5 0 4 0;
#X connect 6 0 5 0;
#X connect 7 0 5 1;
#X connect 8 0 5 2;
#X connect 9 0 10 0;
#X connect 10 0 7 0;
#X connect 10 1 8 0;
#X connect 10 2 6 0;
#X connect 11 0 16 0;
#X connect 11 1 9 0;
#X connect 11 2 15 0;
#X connect 11 2 14 0;
#X connect 11 2 13 0;
#X connect 12 0 11 0;
#X connect 13 0 6 0;
#X connect 14 0 7 0;
#X connect 15 0 8 0;
#X connect 16 0 3 0;
#X coords 0 -1 1 1 333 111 1 100 100;
#X restore 553 323 pd xshift;
#N canvas 1920 73 1065 941 yshift 0;
#X obj 119 26 inlet;
#X obj 113 366 outlet;
#X obj 113 275 translate;
#X floatatom 185 145 5 0 0 0 - - - 0;
#X msg 289 274 \$1 \$2 \$3;
#X obj 305 237 pack i i i;
#X floatatom 257 172 5 0 0 0 - - - 0;
#X floatatom 318 174 5 0 0 0 - - - 0;
#X floatatom 381 172 5 0 0 0 - - - 0;
#X obj 490 52 bng 20 250 50 0 empty empty empty 0 -10 0 12 #fcfcfc #000000 #000000;
#X obj 490 77 t b b b;
#X msg 287 67 0;
#X msg 349 70 1;
#X msg 411 67 0;
#X obj 412 -7 t b b b;
#X obj 421 -103 loadbang;
#X msg 202 69 0;
#X connect 0 0 2 0;
#X connect 2 0 1 0;
#X connect 3 0 2 1;
#X connect 4 0 2 2;
#X connect 5 0 4 0;
#X connect 6 0 5 0;
#X connect 7 0 5 1;
#X connect 8 0 5 2;
#X connect 9 0 10 0;
#X connect 10 0 7 0;
#X connect 10 1 8 0;
#X connect 10 2 6 0;
#X connect 11 0 6 0;
#X connect 12 0 7 0;
#X connect 13 0 8 0;
#X connect 14 0 16 0;
#X connect 14 1 9 0;
#X connect 14 2 13 0;
#X connect 14 2 12 0;
#X connect 14 2 11 0;
#X connect 15 0 14 0;
#X connect 16 0 3 0;
#X coords 0 -1 1 1 333 111 1 100 100;
#X restore 553 462 pd yshift;
#X msg 594 196 device /dev/video10;
#X obj 963 74 gemhead;
#X obj 971 251 pix_video;
#X obj 989 144 loadbang;
#N canvas 1035 819 815 568 xshift 0;
#X obj 119 26 inlet;
#X obj 113 366 outlet;
#X obj 113 275 translate;
#X floatatom 185 145 5 0 0 0 - - - 0;
#X msg 289 274 \$1 \$2 \$3;
#X obj 305 237 pack i i i;
#X floatatom 257 172 5 0 0 0 - - - 0;
#X floatatom 318 174 5 0 0 0 - - - 0;
#X floatatom 381 172 5 0 0 0 - - - 0;
#X obj 490 52 bng 20 250 50 0 empty empty empty 0 -10 0 12 #fcfcfc #000000 #000000;
#X obj 490 77 t b b b;
#X obj 412 -7 t b b b;
#X obj 421 -103 loadbang;
#X msg 287 67 1;
#X msg 349 70 0;
#X msg 411 67 0;
#X msg 201 69 1.5;
#X connect 0 0 2 0;
#X connect 2 0 1 0;
#X connect 3 0 2 1;
#X connect 4 0 2 2;
#X connect 5 0 4 0;
#X connect 6 0 5 0;
#X connect 7 0 5 1;
#X connect 8 0 5 2;
#X connect 9 0 10 0;
#X connect 10 0 7 0;
#X connect 10 1 8 0;
#X connect 10 2 6 0;
#X connect 11 0 16 0;
#X connect 11 1 9 0;
#X connect 11 2 15 0;
#X connect 11 2 14 0;
#X connect 11 2 13 0;
#X connect 12 0 11 0;
#X connect 13 0 6 0;
#X connect 14 0 7 0;
#X connect 15 0 8 0;
#X connect 16 0 3 0;
#X coords 0 -1 1 1 333 111 1 100 100;
#X restore 948 326 pd xshift;
#N canvas 1430 911 1065 941 yshift 0;
#X obj 119 26 inlet;
#X obj 113 366 outlet;
#X obj 113 275 translate;
#X floatatom 185 145 5 0 0 0 - - - 0;
#X msg 289 274 \$1 \$2 \$3;
#X obj 305 237 pack i i i;
#X floatatom 257 172 5 0 0 0 - - - 0;
#X floatatom 318 174 5 0 0 0 - - - 0;
#X floatatom 381 172 5 0 0 0 - - - 0;
#X obj 490 52 bng 20 250 50 0 empty empty empty 0 -10 0 12 #fcfcfc #000000 #000000;
#X obj 490 77 t b b b;
#X msg 287 67 0;
#X msg 349 70 1;
#X msg 411 67 0;
#X obj 412 -7 t b b b;
#X obj 421 -103 loadbang;
#X msg 201 69 1.5;
#X connect 0 0 2 0;
#X connect 2 0 1 0;
#X connect 3 0 2 1;
#X connect 4 0 2 2;
#X connect 5 0 4 0;
#X connect 6 0 5 0;
#X connect 7 0 5 1;
#X connect 8 0 5 2;
#X connect 9 0 10 0;
#X connect 10 0 7 0;
#X connect 10 1 8 0;
#X connect 10 2 6 0;
#X connect 11 0 6 0;
#X connect 12 0 7 0;
#X connect 13 0 8 0;
#X connect 14 0 16 0;
#X connect 14 1 9 0;
#X connect 14 2 13 0;
#X connect 14 2 12 0;
#X connect 14 2 11 0;
#X connect 15 0 14 0;
#X connect 16 0 3 0;
#X coords 0 -1 1 1 333 111 1 100 100;
#X restore 948 465 pd yshift;
#X msg 989 199 device /dev/video10;
#X obj 2194 73 gemhead;
#X obj 2202 250 pix_video;
#X obj 2220 143 loadbang;
#N canvas 1035 446 815 568 xshift 0;
#X obj 119 26 inlet;
#X obj 113 366 outlet;
#X obj 113 275 translate;
#X floatatom 185 145 5 0 0 0 - - - 0;
#X msg 289 274 \$1 \$2 \$3;
#X obj 305 237 pack i i i;
#X floatatom 257 172 5 0 0 0 - - - 0;
#X floatatom 318 174 5 0 0 0 - - - 0;
#X floatatom 381 172 5 0 0 0 - - - 0;
#X obj 490 52 bng 20 250 50 0 empty empty empty 0 -10 0 12 #fcfcfc #000000 #000000;
#X obj 490 77 t b b b;
#X obj 412 -7 t b b b;
#X obj 421 -103 loadbang;
#X msg 287 67 1;
#X msg 349 70 0;
#X msg 411 67 0;
#X msg 201 69 2.5;
#X connect 0 0 2 0;
#X connect 2 0 1 0;
#X connect 3 0 2 1;
#X connect 4 0 2 2;
#X connect 5 0 4 0;
#X connect 6 0 5 0;
#X connect 7 0 5 1;
#X connect 8 0 5 2;
#X connect 9 0 10 0;
#X connect 10 0 7 0;
#X connect 10 1 8 0;
#X connect 10 2 6 0;
#X connect 11 0 16 0;
#X connect 11 1 9 0;
#X connect 11 2 15 0;
#X connect 11 2 14 0;
#X connect 11 2 13 0;
#X connect 12 0 11 0;
#X connect 13 0 6 0;
#X connect 14 0 7 0;
#X connect 15 0 8 0;
#X connect 16 0 3 0;
#X coords 0 -1 1 1 333 111 1 100 100;
#X restore 2179 325 pd xshift;
#N canvas 1920 73 1065 941 yshift 0;
#X obj 119 26 inlet;
#X obj 113 366 outlet;
#X obj 113 275 translate;
#X floatatom 185 145 5 0 0 0 - - - 0;
#X msg 289 274 \$1 \$2 \$3;
#X obj 305 237 pack i i i;
#X floatatom 257 172 5 0 0 0 - - - 0;
#X floatatom 318 174 5 0 0 0 - - - 0;
#X floatatom 381 172 5 0 0 0 - - - 0;
#X obj 490 52 bng 20 250 50 0 empty empty empty 0 -10 0 12 #fcfcfc #000000 #000000;
#X obj 490 77 t b b b;
#X msg 287 67 0;
#X msg 349 70 1;
#X msg 411 67 0;
#X obj 412 -7 t b b b;
#X obj 421 -103 loadbang;
#X msg 201 69 0;
#X connect 0 0 2 0;
#X connect 2 0 1 0;
#X connect 3 0 2 1;
#X connect 4 0 2 2;
#X connect 5 0 4 0;
#X connect 6 0 5 0;
#X connect 7 0 5 1;
#X connect 8 0 5 2;
#X connect 9 0 10 0;
#X connect 10 0 7 0;
#X connect 10 1 8 0;
#X connect 10 2 6 0;
#X connect 11 0 6 0;
#X connect 12 0 7 0;
#X connect 13 0 8 0;
#X connect 14 0 16 0;
#X connect 14 1 9 0;
#X connect 14 2 13 0;
#X connect 14 2 12 0;
#X connect 14 2 11 0;
#X connect 15 0 14 0;
#X connect 16 0 3 0;
#X coords 0 -1 1 1 333 111 1 100 100;
#X restore 2179 464 pd yshift;
#X msg 2220 198 device /dev/video11;
#N canvas 1534 869 815 568 crop 0;
#X obj 37 39 inlet;
#X obj 37 379 outlet;
#X floatatom 217 152 5 0 0 0 - - - 0;
#X floatatom 149 151 5 0 0 0 - - - 0;
#X floatatom 274 156 5 0 0 0 - - - 0;
#X obj 37 288 pix_crop;
#X floatatom 340 156 5 0 0 0 - - - 0;
#X msg 214 73 2200;
#X msg 153 70 2055;
#X msg 367 60 0;
#X obj 267 11 loadbang;
#X msg 282 70 2055;
#X connect 0 0 5 0;
#X connect 2 0 5 2;
#X connect 3 0 5 1;
#X connect 4 0 5 3;
#X connect 5 0 1 0;
#X connect 6 0 5 4;
#X connect 7 0 2 0;
#X connect 8 0 3 0;
#X connect 9 0 6 0;
#X connect 10 0 8 0;
#X connect 10 0 7 0;
#X connect 10 0 11 0;
#X connect 10 0 9 0;
#X connect 11 0 4 0;
#X coords 0 -1 1 1 333 111 1 100 100;
#X restore 947 1172 pd crop;
#X obj 1814 1357 _pix2rectangle 3;
#N canvas 733 910 815 568 crop 0;
#X obj 37 39 inlet;
#X obj 37 379 outlet;
#X floatatom 217 152 5 0 0 0 - - - 0;
#X floatatom 149 151 5 0 0 0 - - - 0;
#X floatatom 274 156 5 0 0 0 - - - 0;
#X obj 37 288 pix_crop;
#X floatatom 340 156 5 0 0 0 - - - 0;
#X msg 214 73 2200;
#X msg 153 70 2055;
#X msg 282 70 0;
#X msg 367 60 0;
#X obj 267 11 loadbang;
#X connect 0 0 5 0;
#X connect 2 0 5 2;
#X connect 3 0 5 1;
#X connect 4 0 5 3;
#X connect 5 0 1 0;
#X connect 6 0 5 4;
#X connect 7 0 2 0;
#X connect 8 0 3 0;
#X connect 9 0 4 0;
#X connect 10 0 6 0;
#X connect 11 0 8 0;
#X connect 11 0 7 0;
#X connect 11 0 9 0;
#X connect 11 0 10 0;
#X coords 0 -1 1 1 333 111 1 100 100;
#X restore 1814 1171 pd crop;
#N canvas 546 608 815 568 rotate 0;
#X obj 37 39 inlet;
#X obj 37 379 outlet;
#X floatatom 252 145 5 0 0 0 - - - 0;
#X obj 37 288 rotate;
#X msg 499 186 0 0 1;
#X msg 256 64 -15;
#X obj 374 22 loadbang;
#X obj 374 47 t b b;
#X connect 0 0 3 0;
#X connect 2 0 3 1;
#X connect 3 0 1 0;
#X connect 4 0 3 2;
#X connect 5 0 2 0;
#X connect 6 0 7 0;
#X connect 7 0 5 0;
#X connect 7 1 4 0;
#X coords 0 -1 1 1 333 111 1 100 100;
#X restore 1814 1021 pd rotate;
#N canvas 546 446 815 568 scale 0;
#X obj 37 39 inlet;
#X obj 37 379 outlet;
#X floatatom 252 145 5 0 0 0 - - - 0;
#X obj 37 288 scale;
#X obj 256 31 loadbang;
#X msg 256 64 0.6;
#X connect 0 0 3 0;
#X connect 2 0 3 1;
#X connect 3 0 1 0;
#X connect 4 0 5 0;
#X connect 5 0 2 0;
#X coords 0 -1 1 1 333 111 1 100 100;
#X restore 1814 873 pd scale;
#X obj 553 1354 _pix2rectangle 3;
#N canvas 733 910 815 568 crop 0;
#X obj 37 39 inlet;
#X obj 37 379 outlet;
#X floatatom 217 152 5 0 0 0 - - - 0;
#X floatatom 149 151 5 0 0 0 - - - 0;
#X floatatom 274 156 5 0 0 0 - - - 0;
#X obj 37 288 pix_crop;
#X floatatom 340 156 5 0 0 0 - - - 0;
#X msg 214 73 2200;
#X msg 153 70 2055;
#X msg 282 70 0;
#X msg 367 60 0;
#X obj 267 11 loadbang;
#X connect 0 0 5 0;
#X connect 2 0 5 2;
#X connect 3 0 5 1;
#X connect 4 0 5 3;
#X connect 5 0 1 0;
#X connect 6 0 5 4;
#X connect 7 0 2 0;
#X connect 8 0 3 0;
#X connect 9 0 4 0;
#X connect 10 0 6 0;
#X connect 11 0 8 0;
#X connect 11 0 7 0;
#X connect 11 0 9 0;
#X connect 11 0 10 0;
#X coords 0 -1 1 1 333 111 1 100 100;
#X restore 553 1168 pd crop;
#N canvas 546 608 815 568 rotate 0;
#X obj 37 39 inlet;
#X obj 37 379 outlet;
#X floatatom 252 145 5 0 0 0 - - - 0;
#X obj 37 288 rotate;
#X msg 499 186 0 0 1;
#X msg 256 64 -15;
#X obj 374 22 loadbang;
#X obj 374 47 t b b;
#X connect 0 0 3 0;
#X connect 2 0 3 1;
#X connect 3 0 1 0;
#X connect 4 0 3 2;
#X connect 5 0 2 0;
#X connect 6 0 7 0;
#X connect 7 0 5 0;
#X connect 7 1 4 0;
#X coords 0 -1 1 1 333 111 1 100 100;
#X restore 553 1018 pd rotate;
#N canvas 546 446 815 568 scale 0;
#X obj 37 39 inlet;
#X obj 37 379 outlet;
#X floatatom 252 145 5 0 0 0 - - - 0;
#X obj 37 288 scale;
#X obj 256 31 loadbang;
#X msg 256 64 0.9;
#X connect 0 0 3 0;
#X connect 2 0 3 1;
#X connect 3 0 1 0;
#X connect 4 0 5 0;
#X connect 5 0 2 0;
#X coords 0 -1 1 1 333 111 1 100 100;
#X restore 553 870 pd scale;
#X obj 946 1341 _pix2rectangle 3;
#N canvas 546 608 815 568 rotate 0;
#X obj 37 39 inlet;
#X obj 37 379 outlet;
#X floatatom 252 145 5 0 0 0 - - - 0;
#X obj 37 288 rotate;
#X msg 499 186 0 0 1;
#X obj 374 22 loadbang;
#X obj 374 47 t b b;
#X msg 256 64 15;
#X connect 0 0 3 0;
#X connect 2 0 3 1;
#X connect 3 0 1 0;
#X connect 4 0 3 2;
#X connect 5 0 6 0;
#X connect 6 0 7 0;
#X connect 6 1 4 0;
#X connect 7 0 2 0;
#X coords 0 -1 1 1 333 111 1 100 100;
#X restore 948 1021 pd rotate;
#N canvas 546 446 815 568 scale 0;
#X obj 37 39 inlet;
#X obj 37 379 outlet;
#X floatatom 252 145 5 0 0 0 - - - 0;
#X obj 37 288 scale;
#X obj 256 31 loadbang;
#X msg 256 64 0.6;
#X connect 0 0 3 0;
#X connect 2 0 3 1;
#X connect 3 0 1 0;
#X connect 4 0 5 0;
#X connect 5 0 2 0;
#X coords 0 -1 1 1 333 111 1 100 100;
#X restore 948 873 pd scale;
#X obj 2179 1356 _pix2rectangle 3;
#N canvas 733 910 815 568 crop 0;
#X obj 37 39 inlet;
#X obj 37 379 outlet;
#X floatatom 217 152 5 0 0 0 - - - 0;
#X floatatom 149 151 5 0 0 0 - - - 0;
#X floatatom 274 156 5 0 0 0 - - - 0;
#X obj 37 288 pix_crop;
#X floatatom 340 156 5 0 0 0 - - - 0;
#X msg 214 73 2200;
#X msg 153 70 2055;
#X msg 367 60 0;
#X obj 267 11 loadbang;
#X msg 282 70 2055;
#X connect 0 0 5 0;
#X connect 2 0 5 2;
#X connect 3 0 5 1;
#X connect 4 0 5 3;
#X connect 5 0 1 0;
#X connect 6 0 5 4;
#X connect 7 0 2 0;
#X connect 8 0 3 0;
#X connect 9 0 6 0;
#X connect 10 0 8 0;
#X connect 10 0 7 0;
#X connect 10 0 11 0;
#X connect 10 0 9 0;
#X connect 11 0 4 0;
#X coords 0 -1 1 1 333 111 1 100 100;
#X restore 2179 1170 pd crop;
#N canvas 546 608 815 568 rotate 0;
#X obj 37 39 inlet;
#X obj 37 379 outlet;
#X floatatom 252 145 5 0 0 0 - - - 0;
#X obj 37 288 rotate;
#X msg 499 186 0 0 1;
#X obj 374 22 loadbang;
#X obj 374 47 t b b;
#X msg 256 64 15;
#X connect 0 0 3 0;
#X connect 2 0 3 1;
#X connect 3 0 1 0;
#X connect 4 0 3 2;
#X connect 5 0 6 0;
#X connect 6 0 7 0;
#X connect 6 1 4 0;
#X connect 7 0 2 0;
#X coords 0 -1 1 1 333 111 1 100 100;
#X restore 2179 1020 pd rotate;
#N canvas 546 446 815 568 scale 0;
#X obj 37 39 inlet;
#X obj 37 379 outlet;
#X floatatom 252 145 5 0 0 0 - - - 0;
#X obj 37 288 scale;
#X obj 256 31 loadbang;
#X msg 256 64 0.9;
#X connect 0 0 3 0;
#X connect 2 0 3 1;
#X connect 3 0 1 0;
#X connect 4 0 5 0;
#X connect 5 0 2 0;
#X coords 0 -1 1 1 333 111 1 100 100;
#X restore 2179 872 pd scale;
#N canvas 1920 73 1065 941 zshift 0;
#X obj 119 26 inlet;
#X obj 113 366 outlet;
#X obj 113 275 translate;
#X floatatom 185 145 5 0 0 0 - - - 0;
#X msg 289 274 \$1 \$2 \$3;
#X obj 305 237 pack i i i;
#X floatatom 257 172 5 0 0 0 - - - 0;
#X floatatom 318 174 5 0 0 0 - - - 0;
#X floatatom 381 172 5 0 0 0 - - - 0;
#X obj 490 52 bng 20 250 50 0 empty empty empty 0 -10 0 12 #fcfcfc #000000 #000000;
#X obj 490 77 t b b b;
#X msg 287 67 0;
#X obj 412 -7 t b b b;
#X obj 421 -103 loadbang;
#X msg 349 70 0;
#X msg 411 67 1;
#X msg 202 69 1;
#X connect 0 0 2 0;
#X connect 2 0 1 0;
#X connect 3 0 2 1;
#X connect 4 0 2 2;
#X connect 5 0 4 0;
#X connect 6 0 5 0;
#X connect 7 0 5 1;
#X connect 8 0 5 2;
#X connect 9 0 10 0;
#X connect 10 0 7 0;
#X connect 10 1 8 0;
#X connect 10 2 6 0;
#X connect 11 0 6 0;
#X connect 12 0 16 0;
#X connect 12 1 9 0;
#X connect 12 2 15 0;
#X connect 12 2 14 0;
#X connect 12 2 11 0;
#X connect 13 0 12 0;
#X connect 14 0 7 0;
#X connect 15 0 8 0;
#X connect 16 0 3 0;
#X coords 0 -1 1 1 333 111 1 100 100;
#X restore 553 612 pd zshift;
#N canvas 1430 911 1065 941 zshift 0;
#X obj 119 26 inlet;
#X obj 113 366 outlet;
#X obj 113 275 translate;
#X floatatom 185 145 5 0 0 0 - - - 0;
#X msg 289 274 \$1 \$2 \$3;
#X obj 305 237 pack i i i;
#X floatatom 257 172 5 0 0 0 - - - 0;
#X floatatom 318 174 5 0 0 0 - - - 0;
#X floatatom 381 172 5 0 0 0 - - - 0;
#X obj 490 52 bng 20 250 50 0 empty empty empty 0 -10 0 12 #fcfcfc #000000 #000000;
#X obj 490 77 t b b b;
#X msg 287 67 0;
#X obj 412 -7 t b b b;
#X obj 421 -103 loadbang;
#X msg 349 70 0;
#X msg 411 67 1;
#X msg 202 69 1;
#X connect 0 0 2 0;
#X connect 2 0 1 0;
#X connect 3 0 2 1;
#X connect 4 0 2 2;
#X connect 5 0 4 0;
#X connect 6 0 5 0;
#X connect 7 0 5 1;
#X connect 8 0 5 2;
#X connect 9 0 10 0;
#X connect 10 0 7 0;
#X connect 10 1 8 0;
#X connect 10 2 6 0;
#X connect 11 0 6 0;
#X connect 12 0 16 0;
#X connect 12 1 9 0;
#X connect 12 2 15 0;
#X connect 12 2 14 0;
#X connect 12 2 11 0;
#X connect 13 0 12 0;
#X connect 14 0 7 0;
#X connect 15 0 8 0;
#X connect 16 0 3 0;
#X coords 0 -1 1 1 333 111 1 100 100;
#X restore 948 612 pd zshift;
#N canvas 1430 911 1065 941 zshift 0;
#X obj 119 26 inlet;
#X obj 113 366 outlet;
#X obj 113 275 translate;
#X floatatom 185 145 5 0 0 0 - - - 0;
#X msg 289 274 \$1 \$2 \$3;
#X obj 305 237 pack i i i;
#X floatatom 257 172 5 0 0 0 - - - 0;
#X floatatom 318 174 5 0 0 0 - - - 0;
#X floatatom 381 172 5 0 0 0 - - - 0;
#X obj 490 52 bng 20 250 50 0 empty empty empty 0 -10 0 12 #fcfcfc #000000 #000000;
#X obj 490 77 t b b b;
#X msg 287 67 0;
#X obj 412 -7 t b b b;
#X obj 421 -103 loadbang;
#X msg 349 70 0;
#X msg 411 67 1;
#X msg 202 69 1;
#X connect 0 0 2 0;
#X connect 2 0 1 0;
#X connect 3 0 2 1;
#X connect 4 0 2 2;
#X connect 5 0 4 0;
#X connect 6 0 5 0;
#X connect 7 0 5 1;
#X connect 8 0 5 2;
#X connect 9 0 10 0;
#X connect 10 0 7 0;
#X connect 10 1 8 0;
#X connect 10 2 6 0;
#X connect 11 0 6 0;
#X connect 12 0 16 0;
#X connect 12 1 9 0;
#X connect 12 2 15 0;
#X connect 12 2 14 0;
#X connect 12 2 11 0;
#X connect 13 0 12 0;
#X connect 14 0 7 0;
#X connect 15 0 8 0;
#X connect 16 0 3 0;
#X coords 0 -1 1 1 333 111 1 100 100;
#X restore 1814 608 pd zshift;
#N canvas 1430 911 1065 941 zshift 0;
#X obj 119 26 inlet;
#X obj 113 366 outlet;
#X obj 113 275 translate;
#X floatatom 185 145 5 0 0 0 - - - 0;
#X msg 289 274 \$1 \$2 \$3;
#X obj 305 237 pack i i i;
#X floatatom 257 172 5 0 0 0 - - - 0;
#X floatatom 318 174 5 0 0 0 - - - 0;
#X floatatom 381 172 5 0 0 0 - - - 0;
#X obj 490 52 bng 20 250 50 0 empty empty empty 0 -10 0 12 #fcfcfc #000000 #000000;
#X obj 490 77 t b b b;
#X msg 287 67 0;
#X obj 412 -7 t b b b;
#X obj 421 -103 loadbang;
#X msg 349 70 0;
#X msg 411 67 1;
#X msg 202 69 1;
#X connect 0 0 2 0;
#X connect 2 0 1 0;
#X connect 3 0 2 1;
#X connect 4 0 2 2;
#X connect 5 0 4 0;
#X connect 6 0 5 0;
#X connect 7 0 5 1;
#X connect 8 0 5 2;
#X connect 9 0 10 0;
#X connect 10 0 7 0;
#X connect 10 1 8 0;
#X connect 10 2 6 0;
#X connect 11 0 6 0;
#X connect 12 0 16 0;
#X connect 12 1 9 0;
#X connect 12 2 15 0;
#X connect 12 2 14 0;
#X connect 12 2 11 0;
#X connect 13 0 12 0;
#X connect 14 0 7 0;
#X connect 15 0 8 0;
#X connect 16 0 3 0;
#X coords 0 -1 1 1 333 111 1 100 100;
#X restore 2179 607 pd zshift;
#X obj 212 28 loadbang;
#X connect 5 0 7 0;
#X connect 6 0 9 0;
#X connect 7 0 8 0;
#X connect 8 0 46 0;
#X connect 9 0 5 0;
#X connect 10 0 11 0;
#X connect 11 0 13 0;
#X connect 12 0 15 0;
#X connect 13 0 14 0;
#X connect 14 0 44 0;
#X connect 15 0 11 0;
#X connect 17 0 19 0;
#X connect 18 0 21 0;
#X connect 19 0 20 0;
#X connect 20 0 45 0;
#X connect 21 0 17 0;
#X connect 22 0 23 0;
#X connect 23 0 25 0;
#X connect 24 0 27 0;
#X connect 25 0 26 0;
#X connect 26 0 47 0;
#X connect 27 0 23 0;
#X connect 28 0 37 0;
#X connect 30 0 29 0;
#X connect 31 0 30 0;
#X connect 32 0 31 0;
#X connect 34 0 33 0;
#X connect 35 0 34 0;
#X connect 36 0 35 0;
#X connect 38 0 28 0;
#X connect 39 0 38 0;
#X connect 41 0 40 0;
#X connect 42 0 41 0;
#X connect 43 0 42 0;
#X connect 44 0 36 0;
#X connect 45 0 39 0;
#X connect 46 0 32 0;
#X connect 47 0 43 0;
#X connect 48 0 3 1;
